HIERARCHY
ROOT Hips
{
	OFFSET 0.000000 0.000000 0.000000 
	CHANNELS 6 Xposition Yposition Zposition Yrotation Zrotation Xrotation 
	JOINT Lumbar
	{
		OFFSET 0.000000 0.000000 0.000000 
		CHANNELS 3 Zrotation Xrotation Yrotation
		JOINT Neck
		{
			OFFSET 0.000000 0.445665 0.000000 
			CHANNELS 3 Zrotation Xrotation Yrotation
			End Site
			{
				OFFSET 0.000000 0.227535 0.000000 
			}
		}
		JOINT RightShoulder
		{
			OFFSET 0.019635 0.377685 0.194865 
			CHANNELS 3 Zrotation Xrotation Yrotation
			JOINT RightElbow
			{
				OFFSET 0.000000 -0.243375 0.000000 
				CHANNELS 2 Zrotation Yrotation
				JOINT RightWrist
				{
					OFFSET 0.000000 -0.264825 0.000000 
					CHANNELS 2 Zrotation Xrotation
					End Site
					{
						OFFSET 0.006600 -0.176220 0.000990 
					}
				}
			}
		}
		JOINT LeftShoulder
		{
			OFFSET 0.019635 0.377685 -0.194865 
			CHANNELS 3 Zrotation Xrotation Yrotation
			JOINT LeftElbow
			{
				OFFSET 0.000000 -0.243375 0.000000 
				CHANNELS 2 Zrotation Yrotation
				JOINT LeftWrist
				{
					OFFSET 0.000000 -0.264825 0.000000 
					CHANNELS 2 Zrotation Xrotation
					End Site
					{
						OFFSET 0.006600 -0.176220 -0.000990 
					}
				}
			}
		}
	}
	JOINT RightHip
	{
		OFFSET 0.052140 -0.069960 0.075570 
		CHANNELS 3 Zrotation Xrotation Yrotation
		JOINT RightKnee
		{
			OFFSET 0.000000 -0.402270 0.000000 
			CHANNELS 1 Zrotation
			JOINT RightAnkle
			{
				OFFSET 0.000000 -0.404085 0.000000 
				CHANNELS 3 Zrotation Xrotation Yrotation
				End Site
				{
					OFFSET 0.204105 -0.089430 0.008415 
				}
			}
		}
	}
	JOINT LeftHip
	{
		OFFSET 0.052140 -0.069960 -0.075570 
		CHANNELS 3 Zrotation Xrotation Yrotation
		JOINT LeftKnee
		{
			OFFSET 0.000000 -0.402270 0.000000 
			CHANNELS 1 Zrotation
			JOINT LeftAnkle
			{
				OFFSET 0.000000 -0.404085 0.000000 
				CHANNELS 3 Zrotation Xrotation Yrotation
				End Site
				{
					OFFSET 0.204105 -0.089430 -0.008415 
				}
			}
		}
	}
}
MOTION
Frames: 24
Frame Time: 0.02
-0.42348 -0.46711 0.14836 27.74639 27.61319 -9.02531 23.08312 5.68364 -9.27423 -32.92084 -5.1971 -2.11324 109.99374 -29.36267 47.33514 109.53649 85.9943 -7.16525 -6.62817 111.60664 37.05765 -42.88959 109.56604 -79.25444 0.05368 6.19645 63.38927 -1.70129 -26.86286 -0.54513 -38.97663 16.80661 6.55143 58.73563 4.50201 8.68792 -0.57539 -46.17661 -17.9025 -8.45101
-0.42347 -0.46688 0.14814 27.78805 27.49984 -9.0547 23.14521 5.70346 -9.29853 -32.95106 -5.16139 -2.11325 109.97268 -29.40381 47.35857 109.4872 85.60581 -6.71101 -6.69621 111.77185 37.14322 -43.06796 109.48991 -79.13072 0.15114 6.22682 63.09357 -1.70852 -26.47195 -0.54642 -38.98616 16.67356 6.45531 59.082 4.28884 8.77749 -0.56563 -46.08016 -17.78278 -8.34711
-0.42347 -0.46657 0.14785 27.83455 27.37998 -9.08335 23.20861 5.73205 -9.31334 -32.97241 -5.13623 -2.11325 109.90778 -29.40863 47.38518 109.40601 85.23276 -6.25218 -6.77798 111.89337 37.2294 -43.25105 109.41443 -78.9968 0.22781 6.26295 62.88211 -1.68016 -26.30492 -0.54724 -38.98582 16.57086 6.36216 59.39643 4.02477 8.69837 -0.56778 -45.88833 -17.54759 -8.16721
-0.42346 -0.4663 0.1476 27.87853 27.26518 -9.11227 23.27034 5.75515 -9.3331 -33.00135 -5.10601 -2.11326 109.8606 -29.43253 47.40948 109.34364 84.84924 -5.79366 -6.85196 112.03669 37.31583 -43.42966 109.34025 -78.868 0.31746 6.29558 62.63761 -1.66611 -26.03446 -0.54827 -38.99669 16.45234 6.26892 59.72086 3.787 8.70454 -0.5675 -45.7366 -17.3564 -8.02029
-0.42349 -0.466 0.14733 27.92441 27.1407 -9.14217 23.33639 5.78463 -9.35081 -33.01588 -5.07644 -2.11326 109.82343 -29.44704 47.43806 109.26397 84.4793 -5.34151 -6.93289 112.17591 37.40044 -43.62002 109.25842 -78.74027 0.39158 6.33251 62.37153 -1.65815 -25.76524 -0.54934 -38.97996 16.34128 6.17007 60.07024 3.53388 8.67976 -0.56573 -45.55642 -17.17427 -7.86297
-0.42343 -0.46574 0.14709 27.96748 27.03522 -9.16968 23.39364 5.80298 -9.37007 -33.05781 -5.04812 -2.11326 109.75553 -29.47222 47.45824 109.21239 84.08536 -4.87556 -7.00231 112.31116 37.48898 -43.78613 109.19329 -78.6068 0.49332 6.36155 62.17018 -1.62972 -25.54906 -0.5502 -39.01743 16.22163 6.08319 60.35794 3.30096 8.67827 -0.56584 -45.42822 -16.95652 -7.71597
-0.42308 -0.46558 0.14697 27.99891 26.9829 -9.18968 23.42867 5.78738 -9.3986 -33.18081 -5.02179 -2.11328 109.6034 -29.53154 47.45442 109.24602 83.6186 -4.37153 -7.03841 112.45292 37.58615 -43.88637 109.17081 -78.45933 0.67607 6.36838 62.12717 -1.55373 -25.42239 -0.55057 -39.21462 16.07927 6.03533 60.48142 3.14184 8.76948 -0.56547 -45.47712 -16.66339 -7.61354
-0.42263 -0.46546 0.14689 28.02767 26.95023 -9.20734 23.45441 5.76047 -9.42842 -33.331 -4.99627 -2.1133 109.42338 -29.60315 47.44197 109.30881 83.12788 -3.8545 -7.06211 112.59049 37.68741 -43.9615 109.16571 -78.30656 0.88709 6.36688 62.14623 -1.45858 -25.34264 -0.55074 -39.46507 15.926 5.99831 60.54336 3.00424 8.89105 -0.56546 -45.58574 -16.34301 -7.52679
-0.42223 -0.46532 0.14679 28.05938 26.90927 -9.22673 23.4829 5.73943 -9.45593 -33.46666 -4.96966 -2.11332 109.2627 -29.67193 47.43338 109.35835 82.6499 -3.34375 -7.09019 112.72494 37.78832 -44.04632 109.15506 -78.15558 1.086 6.3684 62.13669 -1.37232 -25.24356 -0.55101 -39.68634 15.77239 5.95201 60.63381 2.85329 9.00669 -0.56547 -45.66666 -16.04245 -7.43712
-0.4218 -0.46518 0.14669 28.08422 26.86532 -9.24349 23.51765 5.71558 -9.4906 -33.61141 -4.94627 -2.11334 109.07297 -29.72877 47.42511 109.40721 82.16417 -2.82959 -7.1239 112.87888 37.8836 -44.13821 109.13494 -78.00497 1.2827 6.37309 62.1319 -1.28402 -25.14351 -0.55124 -39.92904 15.64186 5.92404 60.72113 2.71503 9.08481 -0.56537 -45.74637 -15.70646 -7.32745
-0.42142 -0.46505 0.1466 28.12232 26.83239 -9.26496 23.53712 5.69482 -9.51051 -33.74354 -4.91646 -2.11336 108.93695 -29.81273 47.41414 109.46428 81.68929 -2.3216 -7.14294 112.99212 37.9907 -44.20985 109.1381 -77.85488 1.48893 6.36949 62.13065 -1.19589 -25.05405 -0.55151 -40.13894 15.46068 5.86061 60.80056 2.55683 9.24862 -0.56533 -45.84352 -15.43879 -7.26333
-0.42117 -0.46493 0.14653 28.20061 26.82486 -9.30174 23.51711 5.68504 -9.49177 -33.83619 -4.86673 -2.11336 108.96265 -29.97838 47.39723 109.54186 81.24537 -1.81605 -7.123 112.99326 38.13818 -44.22974 109.20637 -77.69606 1.72737 6.34294 62.12546 -1.11326 -24.97912 -0.55201 -40.25367 15.13894 5.69533 60.87464 2.33266 9.65783 -0.56523 -45.98214 -15.37322 -7.32969
-0.42097 -0.46483 0.14647 28.29177 26.82782 -9.34302 23.482 5.67877 -9.45776 -33.91484 -4.81084 -2.11336 109.04236 -30.16922 47.37799 109.62594 80.81419 -1.32055 -7.08892 112.95537 38.29672 -44.2322 109.29655 -77.54655 1.96861 6.3095 62.12096 -1.03158 -24.91285 -0.55256 -40.33218 14.76726 5.49429 60.9427 2.089 10.14991 -0.56511 -46.13531 -15.37672 -7.4401
-0.42076 -0.46472 0.14641 28.37512 26.82616 -9.38109 23.45347 5.67105 -9.42914 -33.99858 -4.759 -2.11337 109.09324 -30.34228 47.36019 109.70397 80.38011 -0.83209 -7.06225 112.93422 38.44329 -44.2417 109.37339 -77.39218 2.20481 6.27952 62.11479 -0.94949 -24.84343 -0.55308 -40.42163 14.42029 5.31033 61.01281 1.85821 10.59436 -0.565 -46.27732 -15.34484 -7.52525
-0.42051 -0.4646 0.14634 28.46667 26.82455 -9.42395 23.42564 5.66233 -9.40695 -34.08864 -4.70189 -2.11337 109.16123 -30.54255 47.34049 109.7961 79.93237 -0.29403 -7.03105 112.91118 38.61548 -44.24691 109.46508 -77.21387 2.47248 6.24456 62.11666 -0.86669 -24.77192 -0.55363 -40.53565 14.06372 5.12292 61.08393 1.61119 11.08228 -0.56488 -46.44084 -15.32884 -7.63333
-0.42034 -0.4645 0.1463 28.54423 26.82508 -9.45799 23.39309 5.65669 -9.36793 -34.16187 -4.65431 -2.11337 109.20677 -30.69191 47.32431 109.85998 79.51722 0.13797 -7.00606 112.89028 38.74171 -44.26619 109.53084 -77.12081 2.65663 6.22259 62.10102 -0.78577 -24.70686 -0.55414 -40.58993 13.71631 4.93451 61.15198 1.39311 11.49843 -0.56479 -46.56186 -15.29647 -7.70355
-0.42042 -0.46447 0.14636 28.58003 26.82875 -9.46619 23.3495 5.65856 -9.2844 -34.19162 -4.63425 -2.11338 109.17751 -30.69541 47.31864 109.84455 79.18299 0.28095 -7.00205 112.81678 38.69384 -44.24621 109.51935 -76.95642 2.77745 6.19991 62.03723 -0.71069 -24.65098 -0.55454 -40.48153 13.39881 4.74806 61.21634 1.25944 11.701 -0.56474 -46.56564 -15.20323 -7.66185
-0.42058 -0.46446 0.14646 28.60136 26.83416 -9.46545 23.30203 5.66346 -9.18483 -34.20482 -4.62405 -2.11338 109.12405 -30.64678 47.31668 109.80035 78.88283 0.31703 -7.0048 112.75624 38.60559 -44.25237 109.48103 -76.91955 2.79084 6.19582 61.95543 -0.63745 -24.6021 -0.5549 -40.31517 13.09375 4.56256 61.27746 1.15554 11.82757 -0.56471 -46.52541 -15.09128 -7.58008
-0.42069 -0.46443 0.14654 28.62931 26.83877 -9.46906 23.25757 5.66711 -9.09371 -34.22582 -4.60952 -2.11339 109.0813 -30.62118 47.31282 109.76884 78.57046 0.40134 -7.00425 112.73857 38.56754 -44.30595 109.45498 -77.0428 2.73272 6.21075 61.88124 -0.56282 -24.55425 -0.55529 -40.17946 12.78796 4.37913 61.33832 1.03809 11.98542 -0.56468 -46.50236 -14.98699 -7.51401
-0.42082 -0.46441 0.14663 28.65741 26.84374 -9.47157 23.20748 5.67038 -8.99698 -34.24538 -4.59409 -2.1134 109.04083 -30.59855 47.30942 109.7388 78.24269 0.48757 -7.0041 112.52708 38.40373 -44.1255 109.42906 -76.30657 3.14903 6.11722 61.80938 -0.49033 -24.48959 -0.55565 -40.02455 12.45949 4.1837 61.40655 0.92003 12.15939 -0.56463 -46.49084 -14.88776 -7.45898
-0.42094 -0.46439 0.14671 28.68171 26.84831 -9.47423 23.1682 5.67507 -8.90852 -34.26391 -4.583 -2.11341 108.99016 -30.55793 47.30642 109.69928 77.95744 0.54355 -7.00501 112.70607 38.48171 -44.41767 109.39661 -77.31434 2.59389 6.24436 61.72858 -0.41407 -24.46067 -0.55605 -39.89605 12.18207 4.01419 61.45835 0.81063 12.28134 -0.56463 -46.44581 -14.77377 -7.37226
-0.42102 -0.46439 0.14676 28.69794 26.85055 -9.47923 23.16131 5.6834 -8.84543 -34.28602 -4.58127 -2.11341 108.91014 -30.47336 47.30187 109.63608 77.77109 0.54471 -7.00719 114.10767 39.32841 -46.19492 109.34904 -83.7754 -0.98801 7.06186 61.62562 -0.32472 -24.53583 -0.55656 -39.85703 12.04111 3.91422 61.46905 0.71721 12.27178 -0.56477 -46.30842 -14.61361 -7.19538
-0.42109 -0.46439 0.14681 28.71098 26.85241 -9.4847 23.16526 5.69296 -8.79158 -34.3073 -4.58363 -2.11342 108.82282 -30.37435 47.29928 109.56506 77.63593 0.51451 -7.01097 115.87653 40.4041 -48.41487 109.29635 -91.87178 -5.47999 8.08608 61.5147 -0.23192 -24.64551 -0.5571 -39.84633 11.95162 3.8408 61.46276 0.63173 12.21317 -0.56497 -46.14048 -14.44069 -6.98992
-0.42115 -0.46439 0.14685 28.72621 26.85497 -9.49012 23.16324 5.7016 -8.73445 -34.32746 -4.58427 -2.11342 108.74184 -30.28554 47.29523 109.50063 77.47414 0.50239 -7.01322 117.3781 41.3134 -50.30656 109.24833 -98.76884 -9.30564 8.95799 61.40857 -0.14216 -24.73447 -0.55762 -39.8213 11.83976 3.75658 61.46197 0.54309 12.18099 -0.56514 -45.99365 -14.2799 -6.80572
